<?xml version="1.0" encoding="UTF-8"?><!DOCTYPE svg PUBLIC "-//W3C//DTD SVG 1.1//EN" "http://www.w3.org/Graphics/SVG/1.1/DTD/svg11.dtd"><svg xmlns="http://www.w3.org/2000/svg" version="1.1" viewBox="0 0 31 31" stroke="none">	<rect width="100%" height="100%" fill="#d4be98"/>	<path d="
M1,1h1v1h-1z M2,1h1v1h-1z M3,1h1v1h-1z M4,1h1v1h-1z M5,1h1v1h-1z M6,1h1v1h-1z M7,1h1v1h-1z M10,1h1v1h-1z M15,1h1v1h-1z M19,1h1v1h-1z M23,1h1v1h-1z M24,1h1v1h-1z M25,1h1v1h-1z M26,1h1v1h-1z M27,1h1v1h-1z M28,1h1v1h-1z M29,1h1v1h-1z M1,2h1v1h-1z M7,2h1v1h-1z M9,2h1v1h-1z M12,2h1v1h-1z M14,2h1v1h-1z M15,2h1v1h-1z M18,2h1v1h-1z M21,2h1v1h-1z M23,2h1v1h-1z M29,2h1v1h-1z M1,3h1v1h-1z M3,3h1v1h-1z M4,3h1v1h-1z M5,3h1v1h-1z M7,3h1v1h-1z M9,3h1v1h-1z M11,3h1v1h-1z M15,3h1v1h-1z M16,3h1v1h-1z M17,3h1v1h-1z M19,3h1v1h-1z M20,3h1v1h-1z M21,3h1v1h-1z M23,3h1v1h-1z M25,3h1v1h-1z M26,3h1v1h-1z M27,3h1v1h-1z M29,3h1v1h-1z M1,4h1v1h-1z M3,4h1v1h-1z M4,4h1v1h-1z M5,4h1v1h-1z M7,4h1v1h-1z M9,4h1v1h-1z M10,4h1v1h-1z M11,4h1v1h-1z M14,4h1v1h-1z M17,4h1v1h-1z M18,4h1v1h-1z M20,4h1v1h-1z M21,4h1v1h-1z M23,4h1v1h-1z M25,4h1v1h-1z M26,4h1v1h-1z M27,4h1v1h-1z M29,4h1v1h-1z M1,5h1v1h-1z M3,5h1v1h-1z M4,5h1v1h-1z M5,5h1v1h-1z M7,5h1v1h-1z M10,5h1v1h-1z M11,5h1v1h-1z M12,5h1v1h-1z M17,5h1v1h-1z M20,5h1v1h-1z M21,5h1v1h-1z M23,5h1v1h-1z M25,5h1v1h-1z M26,5h1v1h-1z M27,5h1v1h-1z M29,5h1v1h-1z M1,6h1v1h-1z M7,6h1v1h-1z M11,6h1v1h-1z M13,6h1v1h-1z M14,6h1v1h-1z M17,6h1v1h-1z M18,6h1v1h-1z M19,6h1v1h-1z M23,6h1v1h-1z M29,6h1v1h-1z M1,7h1v1h-1z M2,7h1v1h-1z M3,7h1v1h-1z M4,7h1v1h-1z M5,7h1v1h-1z M6,7h1v1h-1z M7,7h1v1h-1z M9,7h1v1h-1z M11,7h1v1h-1z M13,7h1v1h-1z M15,7h1v1h-1z M17,7h1v1h-1z M19,7h1v1h-1z M21,7h1v1h-1z M23,7h1v1h-1z M24,7h1v1h-1z M25,7h1v1h-1z M26,7h1v1h-1z M27,7h1v1h-1z M28,7h1v1h-1z M29,7h1v1h-1z M9,8h1v1h-1z M11,8h1v1h-1z M15,8h1v1h-1z M1,9h1v1h-1z M7,9h1v1h-1z M9,9h1v1h-1z M10,9h1v1h-1z M12,9h1v1h-1z M14,9h1v1h-1z M15,9h1v1h-1z M16,9h1v1h-1z M18,9h1v1h-1z M21,9h1v1h-1z M22,9h1v1h-1z M23,9h1v1h-1z M26,9h1v1h-1z M27,9h1v1h-1z M28,9h1v1h-1z M1,10h1v1h-1z M3,10h1v1h-1z M4,10h1v1h-1z M8,10h1v1h-1z M9,10h1v1h-1z M12,10h1v1h-1z M13,10h1v1h-1z M15,10h1v1h-1z M16,10h1v1h-1z M18,10h1v1h-1z M19,10h1v1h-1z M20,10h1v1h-1z M22,10h1v1h-1z M24,10h1v1h-1z M25,10h1v1h-1z M27,10h1v1h-1z M28,10h1v1h-1z M2,11h1v1h-1z M4,11h1v1h-1z M5,11h1v1h-1z M6,11h1v1h-1z M7,11h1v1h-1z M8,11h1v1h-1z M10,11h1v1h-1z M13,11h1v1h-1z M14,11h1v1h-1z M16,11h1v1h-1z M18,11h1v1h-1z M21,11h1v1h-1z M25,11h1v1h-1z M1,12h1v1h-1z M2,12h1v1h-1z M3,12h1v1h-1z M4,12h1v1h-1z M6,12h1v1h-1z M9,12h1v1h-1z M10,12h1v1h-1z M11,12h1v1h-1z M15,12h1v1h-1z M16,12h1v1h-1z M20,12h1v1h-1z M22,12h1v1h-1z M26,12h1v1h-1z M2,13h1v1h-1z M3,13h1v1h-1z M5,13h1v1h-1z M6,13h1v1h-1z M7,13h1v1h-1z M11,13h1v1h-1z M12,13h1v1h-1z M16,13h1v1h-1z M20,13h1v1h-1z M23,13h1v1h-1z M24,13h1v1h-1z M29,13h1v1h-1z M3,14h1v1h-1z M6,14h1v1h-1z M10,14h1v1h-1z M11,14h1v1h-1z M12,14h1v1h-1z M14,14h1v1h-1z M16,14h1v1h-1z M17,14h1v1h-1z M20,14h1v1h-1z M21,14h1v1h-1z M23,14h1v1h-1z M24,14h1v1h-1z M25,14h1v1h-1z M28,14h1v1h-1z M29,14h1v1h-1z M4,15h1v1h-1z M5,15h1v1h-1z M7,15h1v1h-1z M11,15h1v1h-1z M12,15h1v1h-1z M16,15h1v1h-1z M17,15h1v1h-1z M18,15h1v1h-1z M19,15h1v1h-1z M21,15h1v1h-1z M22,15h1v1h-1z M25,15h1v1h-1z M26,15h1v1h-1z M27,15h1v1h-1z M3,16h1v1h-1z M4,16h1v1h-1z M5,16h1v1h-1z M6,16h1v1h-1z M9,16h1v1h-1z M10,16h1v1h-1z M11,16h1v1h-1z M15,16h1v1h-1z M16,16h1v1h-1z M19,16h1v1h-1z M20,16h1v1h-1z M24,16h1v1h-1z M25,16h1v1h-1z M27,16h1v1h-1z M29,16h1v1h-1z M1,17h1v1h-1z M3,17h1v1h-1z M5,17h1v1h-1z M6,17h1v1h-1z M7,17h1v1h-1z M8,17h1v1h-1z M9,17h1v1h-1z M10,17h1v1h-1z M14,17h1v1h-1z M15,17h1v1h-1z M18,17h1v1h-1z M20,17h1v1h-1z M22,17h1v1h-1z M24,17h1v1h-1z M26,17h1v1h-1z M27,17h1v1h-1z M1,18h1v1h-1z M2,18h1v1h-1z M4,18h1v1h-1z M10,18h1v1h-1z M11,18h1v1h-1z M12,18h1v1h-1z M13,18h1v1h-1z M14,18h1v1h-1z M16,18h1v1h-1z M17,18h1v1h-1z M20,18h1v1h-1z M23,18h1v1h-1z M24,18h1v1h-1z M25,18h1v1h-1z M27,18h1v1h-1z M28,18h1v1h-1z M29,18h1v1h-1z M1,19h1v1h-1z M2,19h1v1h-1z M3,19h1v1h-1z M4,19h1v1h-1z M6,19h1v1h-1z M7,19h1v1h-1z M14,19h1v1h-1z M15,19h1v1h-1z M16,19h1v1h-1z M19,19h1v1h-1z M20,19h1v1h-1z M25,19h1v1h-1z M26,19h1v1h-1z M29,19h1v1h-1z M1,20h1v1h-1z M6,20h1v1h-1z M8,20h1v1h-1z M11,20h1v1h-1z M13,20h1v1h-1z M15,20h1v1h-1z M16,20h1v1h-1z M21,20h1v1h-1z M23,20h1v1h-1z M1,21h1v1h-1z M3,21h1v1h-1z M4,21h1v1h-1z M6,21h1v1h-1z M7,21h1v1h-1z M8,21h1v1h-1z M9,21h1v1h-1z M10,21h1v1h-1z M12,21h1v1h-1z M13,21h1v1h-1z M14,21h1v1h-1z M15,21h1v1h-1z M16,21h1v1h-1z M18,21h1v1h-1z M19,21h1v1h-1z M20,21h1v1h-1z M21,21h1v1h-1z M22,21h1v1h-1z M23,21h1v1h-1z M24,21h1v1h-1z M25,21h1v1h-1z M27,21h1v1h-1z M28,21h1v1h-1z M29,21h1v1h-1z M9,22h1v1h-1z M12,22h1v1h-1z M13,22h1v1h-1z M15,22h1v1h-1z M16,22h1v1h-1z M18,22h1v1h-1z M19,22h1v1h-1z M21,22h1v1h-1z M25,22h1v1h-1z M26,22h1v1h-1z M1,23h1v1h-1z M2,23h1v1h-1z M3,23h1v1h-1z M4,23h1v1h-1z M5,23h1v1h-1z M6,23h1v1h-1z M7,23h1v1h-1z M10,23h1v1h-1z M16,23h1v1h-1z M18,23h1v1h-1z M20,23h1v1h-1z M21,23h1v1h-1z M23,23h1v1h-1z M25,23h1v1h-1z M26,23h1v1h-1z M27,23h1v1h-1z M1,24h1v1h-1z M7,24h1v1h-1z M11,24h1v1h-1z M12,24h1v1h-1z M15,24h1v1h-1z M16,24h1v1h-1z M20,24h1v1h-1z M21,24h1v1h-1z M25,24h1v1h-1z M29,24h1v1h-1z M1,25h1v1h-1z M3,25h1v1h-1z M4,25h1v1h-1z M5,25h1v1h-1z M7,25h1v1h-1z M10,25h1v1h-1z M14,25h1v1h-1z M15,25h1v1h-1z M16,25h1v1h-1z M20,25h1v1h-1z M21,25h1v1h-1z M22,25h1v1h-1z M23,25h1v1h-1z M24,25h1v1h-1z M25,25h1v1h-1z M26,25h1v1h-1z M28,25h1v1h-1z M1,26h1v1h-1z M3,26h1v1h-1z M4,26h1v1h-1z M5,26h1v1h-1z M7,26h1v1h-1z M11,26h1v1h-1z M14,26h1v1h-1z M16,26h1v1h-1z M17,26h1v1h-1z M18,26h1v1h-1z M19,26h1v1h-1z M20,26h1v1h-1z M21,26h1v1h-1z M22,26h1v1h-1z M26,26h1v1h-1z M27,26h1v1h-1z M29,26h1v1h-1z M1,27h1v1h-1z M3,27h1v1h-1z M4,27h1v1h-1z M5,27h1v1h-1z M7,27h1v1h-1z M10,27h1v1h-1z M12,27h1v1h-1z M16,27h1v1h-1z M17,27h1v1h-1z M20,27h1v1h-1z M21,27h1v1h-1z M22,27h1v1h-1z M23,27h1v1h-1z M24,27h1v1h-1z M25,27h1v1h-1z M26,27h1v1h-1z M27,27h1v1h-1z M28,27h1v1h-1z M1,28h1v1h-1z M7,28h1v1h-1z M10,28h1v1h-1z M14,28h1v1h-1z M15,28h1v1h-1z M17,28h1v1h-1z M23,28h1v1h-1z M24,28h1v1h-1z M26,28h1v1h-1z M27,28h1v1h-1z M29,28h1v1h-1z M1,29h1v1h-1z M2,29h1v1h-1z M3,29h1v1h-1z M4,29h1v1h-1z M5,29h1v1h-1z M6,29h1v1h-1z M7,29h1v1h-1z M9,29h1v1h-1z M12,29h1v1h-1z M15,29h1v1h-1z M16,29h1v1h-1z M18,29h1v1h-1z M20,29h1v1h-1z M23,29h1v1h-1z M24,29h1v1h-1z M25,29h1v1h-1z M27,29h1v1h-1z" fill="#282828"/>
</svg>
